<?xml version="1.0" encoding="utf-8"?>
<!-- Generator: Adobe Illustrator 17.0.2, SVG Export Plug-In . SVG Version: 6.00 Build 0)  -->
<!DOCTYPE svg PUBLIC "-//W3C//DTD SVG 1.1//EN" "http://www.w3.org/Graphics/SVG/1.1/DTD/svg11.dtd">
<svg version="1.1" xmlns="http://www.w3.org/2000/svg" xmlns:xlink="http://www.w3.org/1999/xlink" x="0px" y="0px"
	 width="1300.633px" height="552px" viewBox="0 0 1300.633 552" enable-background="new 0 0 1300.633 552" xml:space="preserve">
<g id="background" display="none">
	<rect x="0" display="inline" fill="#EF5285" width="1300.633" height="552"/>
</g>
<g id="objects">
	<g opacity="0.2">
		<polygon fill="#D5E6DB" points="1067.251,194.193 1067.934,126.912 1300.633,139.056 		"/>
		<polygon fill="#6F9AAC" points="1297.25,139.346 1067.251,194.193 1107.241,168.279 		"/>
		<polygon fill="#FFFFFF" points="1300.633,139.056 1107.241,168.279 1149.367,219.468 		"/>
		<polygon fill="#FFFFFF" points="1067.934,126.912 1025.243,85.274 1300.633,139.056 		"/>
	</g>
	<path opacity="0.2" fill="none" stroke="#FFFFFF" stroke-width="2" stroke-miterlimit="10" stroke-dasharray="5" d="M0,327.581
		c57.598,28.727,150.345,34.72,196.987-19.837c18.822-22.016,26.85-51.709,16.15-80.059c-13.521-35.827-51.8-28.537-61.259,7.229
		c-15.537,58.755,29.588,130.727,78.638,156.075c28.349,14.651,61.969,14.424,86.259-8.363
		c38.762-36.362,24.317-79.496,19.693-126.108c-5.75-57.953-33.676-172.75,29.877-208.915
		c44.606-25.383,105.991,8.302,135.411,42.688c34.591,40.43,50.551,96.543,48.894,149.179
		c-2.463,78.224-52.933,147.046-22.05,227.515c13.318,34.701,42.512,50.058,78.82,40.859c33.039-8.371,46.747-37.547,62.58-64.403
		c21.376-36.256,40.387-74.096,57.16-112.688c16.093-37.027,8.182-83.416-28.936-105.442c-9.635-5.717-23.354-6.217-31.037,1.937
		c-5.794,6.148-6.749,15.666-4.554,23.827c15.985,59.434,71.799,67.618,122.311,45.336c45.466-20.055,85.997-57.408,98.573-106.785
		c4.052-15.91,8.476-40.758,30.516-39.923c16.187,0.613,26.167,19.693,28.428,33.582c5.082,31.216,3.71,81.998,52.58,63.762
		c12.416-4.633,22.807-13.383,32.597-22.315c11.589-10.574,23.888-22.802,38.007-29.927"/>
</g>
</svg>
