<?xml version="1.0" encoding="utf-8"?>
<!-- Generator: Adobe Illustrator 17.0.2, SVG Export Plug-In . SVG Version: 6.00 Build 0)  -->
<!DOCTYPE svg PUBLIC "-//W3C//DTD SVG 1.1//EN" "http://www.w3.org/Graphics/SVG/1.1/DTD/svg11.dtd">
<svg version="1.1" id="Layer_1" xmlns="http://www.w3.org/2000/svg" xmlns:xlink="http://www.w3.org/1999/xlink" x="0px" y="0px"
	 width="512px" height="512px" viewBox="0 0 512 512" enable-background="new 0 0 512 512" xml:space="preserve">
<g>
	<defs>
		<rect id="SVGID_1_" width="512" height="512"/>
	</defs>
	<clipPath id="SVGID_2_">
		<use xlink:href="#SVGID_1_"  overflow="visible"/>
	</clipPath>
	<circle clip-path="url(#SVGID_2_)" fill="#2B90D9" cx="256" cy="256" r="256"/>
</g>
<g>
	<defs>
		<rect id="SVGID_3_" width="512" height="512"/>
	</defs>
	<clipPath id="SVGID_4_">
		<use xlink:href="#SVGID_3_"  overflow="visible"/>
	</clipPath>
	<path clip-path="url(#SVGID_4_)" fill="#3E3E3F" d="M404.945,343.166c0,7.48-6.06,13.54-13.54,13.54H120.595
		c-7.48,0-13.54-6.06-13.54-13.54V153.6c0-7.48,6.06-13.54,13.54-13.54h270.811c7.48,0,13.54,6.06,13.54,13.54V343.166z"/>
</g>
<g>
	<defs>
		<rect id="SVGID_5_" width="512" height="512"/>
	</defs>
	<clipPath id="SVGID_6_">
		<use xlink:href="#SVGID_5_"  overflow="visible"/>
	</clipPath>
	<rect x="215.38" y="356.706" clip-path="url(#SVGID_6_)" fill="#E2E4E5" width="81.245" height="34.7"/>
</g>
<g>
	<defs>
		<rect id="SVGID_7_" width="512" height="512"/>
	</defs>
	<clipPath id="SVGID_8_">
		<use xlink:href="#SVGID_7_"  overflow="visible"/>
	</clipPath>
	<path clip-path="url(#SVGID_8_)" fill="#F0F1F1" d="M323.7,398.173c0,3.738-3.03,6.772-6.772,6.772H195.067
		c-3.738,0-6.772-3.03-6.772-6.772s3.03-6.772,6.772-6.772h121.865C320.67,391.405,323.7,394.435,323.7,398.173z"/>
</g>
<g>
	<defs>
		<rect id="SVGID_9_" width="512" height="512"/>
	</defs>
	<clipPath id="SVGID_10_">
		<use xlink:href="#SVGID_9_"  overflow="visible"/>
	</clipPath>
	<path clip-path="url(#SVGID_10_)" fill="#FFFFFF" d="M404.945,343.166v-40.62H107.055v40.62c0,7.48,6.065,13.54,13.54,13.54
		h270.811C398.881,356.706,404.945,350.646,404.945,343.166z"/>
</g>
<g>
	<defs>
		<rect id="SVGID_11_" width="512" height="512"/>
	</defs>
	<clipPath id="SVGID_12_">
		<use xlink:href="#SVGID_11_"  overflow="visible"/>
	</clipPath>
	<path clip-path="url(#SVGID_12_)" fill="#CFD3D4" d="M256,321.587c-4.901,0-8.886,3.984-8.886,8.885
		c0,4.901,3.984,8.885,8.886,8.885c4.901,0,8.886-3.984,8.886-8.885C264.886,325.576,260.901,321.587,256,321.587z M256,348.667
		c-10.035,0-18.195-8.159-18.195-18.195c0-10.031,8.164-18.195,18.195-18.195s18.195,8.159,18.195,18.195
		S266.035,348.667,256,348.667z"/>
</g>
<g>
	<defs>
		<rect id="SVGID_13_" width="512" height="512"/>
	</defs>
	<clipPath id="SVGID_14_">
		<use xlink:href="#SVGID_13_"  overflow="visible"/>
	</clipPath>
	<path clip-path="url(#SVGID_14_)" fill="#5B5C5F" d="M107.055,153.176v148.945h91.806l162.486-162.486H120.595
		C113.119,139.636,107.055,145.701,107.055,153.176z"/>
</g>
<g display="none">
	<defs>
		<rect id="SVGID_15_" width="512" height="512"/>
	</defs>
	<clipPath id="SVGID_16_" display="inline">
		<use xlink:href="#SVGID_15_"  overflow="visible"/>
	</clipPath>
	<path display="inline" clip-path="url(#SVGID_16_)" fill="#FFFFFF" d="M146.702,173.028c0.856,0,1.489,0.652,1.489,1.466
		c0,0.833-0.633,1.489-1.489,1.489c-0.833,0-1.466-0.656-1.466-1.489C145.236,173.68,145.869,173.028,146.702,173.028z
		 M149.704,174.494c0-4.534-1.103-6.381-2.998-6.381c-1.871,0-2.998,1.848-2.998,6.381c0,4.557,1.126,6.405,2.998,6.405
		C148.596,180.894,149.704,179.046,149.704,174.494z M141.563,174.494c0-5.139,1.759-8.024,5.139-8.024
		c3.384,0,5.139,2.886,5.139,8.024c0,5.162-1.759,8.048-5.139,8.048C143.323,182.542,141.563,179.656,141.563,174.494z"/>
</g>
<g display="none">
	<defs>
		<rect id="SVGID_17_" width="512" height="512"/>
	</defs>
	<clipPath id="SVGID_18_" display="inline">
		<use xlink:href="#SVGID_17_"  overflow="visible"/>
	</clipPath>
	<polygon display="inline" clip-path="url(#SVGID_18_)" fill="#FFFFFF" points="160.154,169.016 156.435,171.269 155.443,169.826 
		160.405,166.735 162.23,166.735 162.23,180.601 165.409,180.601 165.409,182.272 156.346,182.272 156.346,180.601 160.158,180.601 
		160.158,169.016 	"/>
</g>
<g display="none">
	<defs>
		<rect id="SVGID_19_" width="512" height="512"/>
	</defs>
	<clipPath id="SVGID_20_" display="inline">
		<use xlink:href="#SVGID_19_"  overflow="visible"/>
	</clipPath>
	<polygon display="inline" clip-path="url(#SVGID_20_)" fill="#FFFFFF" points="191.116,168.834 192.107,170.389 184.218,175.216 
		192.107,180.061 191.023,181.574 182.43,176.207 182.43,174.201 	"/>
</g>
<g display="none">
	<defs>
		<rect id="SVGID_21_" width="512" height="512"/>
	</defs>
	<clipPath id="SVGID_22_" display="inline">
		<use xlink:href="#SVGID_21_"  overflow="visible"/>
	</clipPath>
	<polygon display="inline" clip-path="url(#SVGID_22_)" fill="#FFFFFF" points="203.599,182.272 203.599,174.992 197.962,174.992 
		197.962,182.272 195.821,182.272 195.821,166.74 197.962,166.74 197.962,173.233 203.599,173.233 203.599,166.74 205.74,166.74 
		205.74,182.272 	"/>
</g>
<g display="none">
	<defs>
		<rect id="SVGID_23_" width="512" height="512"/>
	</defs>
	<clipPath id="SVGID_24_" display="inline">
		<use xlink:href="#SVGID_23_"  overflow="visible"/>
	</clipPath>
	<polygon display="inline" clip-path="url(#SVGID_24_)" fill="#FFFFFF" points="215.338,168.541 215.338,182.272 213.197,182.272 
		213.197,168.541 208.393,168.541 208.393,166.74 220.207,166.74 219.983,168.541 	"/>
</g>
<g display="none">
	<defs>
		<rect id="SVGID_25_" width="512" height="512"/>
	</defs>
	<clipPath id="SVGID_26_" display="inline">
		<use xlink:href="#SVGID_25_"  overflow="visible"/>
	</clipPath>
	<path display="inline" clip-path="url(#SVGID_26_)" fill="#FFFFFF" d="M231.899,182.272l-0.451-7.959
		c-0.112-2.188-0.112-4.71-0.088-5.208h-0.07l-2.458,10.394h-2.053l-2.569-10.394h-0.088c0,0.517,0.047,3.202-0.047,5.208
		l-0.382,7.959h-1.983l0.88-15.532h2.839l2.392,10.37h0.088l2.276-10.37h2.863l0.88,15.532H231.899z"/>
</g>
<g display="none">
	<defs>
		<rect id="SVGID_27_" width="512" height="512"/>
	</defs>
	<clipPath id="SVGID_28_" display="inline">
		<use xlink:href="#SVGID_27_"  overflow="visible"/>
	</clipPath>
	<polygon display="inline" clip-path="url(#SVGID_28_)" fill="#FFFFFF" points="237.526,182.272 237.526,166.74 239.667,166.74 
		239.667,180.401 246.723,180.401 246.477,182.272 	"/>
</g>
<g display="none">
	<defs>
		<rect id="SVGID_29_" width="512" height="512"/>
	</defs>
	<clipPath id="SVGID_30_" display="inline">
		<use xlink:href="#SVGID_29_"  overflow="visible"/>
	</clipPath>
	<polygon display="inline" clip-path="url(#SVGID_30_)" fill="#FFFFFF" points="259.705,174.201 259.705,176.207 251.113,181.574 
		250.028,180.061 257.918,175.216 250.028,170.389 251.02,168.834 	"/>
</g>
<g display="none">
	<defs>
		<rect id="SVGID_31_" width="512" height="512"/>
	</defs>
	<clipPath id="SVGID_32_" display="inline">
		<use xlink:href="#SVGID_31_"  overflow="visible"/>
	</clipPath>
	<path display="inline" clip-path="url(#SVGID_32_)" fill="#FFFFFF" d="M146.702,200.066c0.856,0,1.489,0.652,1.489,1.466
		c0,0.833-0.633,1.489-1.489,1.489c-0.833,0-1.466-0.656-1.466-1.489C145.236,200.718,145.869,200.066,146.702,200.066z
		 M149.704,201.533c0-4.534-1.103-6.381-2.998-6.381c-1.871,0-2.998,1.848-2.998,6.381c0,4.557,1.126,6.405,2.998,6.405
		C148.596,207.932,149.704,206.085,149.704,201.533z M141.563,201.533c0-5.139,1.759-8.024,5.139-8.024
		c3.384,0,5.139,2.886,5.139,8.024c0,5.162-1.759,8.048-5.139,8.048C143.323,209.58,141.563,206.694,141.563,201.533z"/>
</g>
<g display="none">
	<defs>
		<rect id="SVGID_33_" width="512" height="512"/>
	</defs>
	<clipPath id="SVGID_34_" display="inline">
		<use xlink:href="#SVGID_33_"  overflow="visible"/>
	</clipPath>
	<path display="inline" clip-path="url(#SVGID_34_)" fill="#FFFFFF" d="M157.766,207.574h7.056l-0.247,1.736h-9.244v-1.648
		c5.367-5.32,7.014-7.466,7.014-9.807c0-1.671-1.126-2.616-2.639-2.616c-1.285,0-2.164,0.475-3.114,1.666l-1.443-1.015
		c1.219-1.508,2.751-2.392,4.668-2.392c2.839,0,4.669,1.806,4.669,4.287C164.482,200.495,162.341,203.199,157.766,207.574z"/>
</g>
<g display="none">
	<defs>
		<rect id="SVGID_35_" width="512" height="512"/>
	</defs>
	<clipPath id="SVGID_36_" display="inline">
		<use xlink:href="#SVGID_35_"  overflow="visible"/>
	</clipPath>
	<polygon display="inline" clip-path="url(#SVGID_36_)" fill="#FFFFFF" points="191.116,195.873 192.107,197.427 184.218,202.254 
		192.107,207.099 191.023,208.612 182.43,203.245 182.43,201.239 	"/>
</g>
<g display="none">
	<defs>
		<rect id="SVGID_37_" width="512" height="512"/>
	</defs>
	<clipPath id="SVGID_38_" display="inline">
		<use xlink:href="#SVGID_37_"  overflow="visible"/>
	</clipPath>
	<path display="inline" clip-path="url(#SVGID_38_)" fill="#FFFFFF" d="M200.755,202.049h-2.527v5.525h2.434
		c1.513,0,3.337-0.428,3.337-2.662C204.004,202.636,202.538,202.049,200.755,202.049z M200.42,195.468h-2.188v4.869h2.369
		c1.806,0,2.797-0.745,2.797-2.504C203.394,196.119,202.268,195.468,200.42,195.468z M200.374,209.31h-4.282v-15.532h3.947
		c2.774,0,5.548,0.88,5.548,3.924c0,1.983-1.396,3.021-2.704,3.314v0.088c1.555,0.293,3.384,1.196,3.384,3.766
		C206.257,208.272,203.283,209.31,200.374,209.31z"/>
</g>
<g display="none">
	<defs>
		<rect id="SVGID_39_" width="512" height="512"/>
	</defs>
	<clipPath id="SVGID_40_" display="inline">
		<use xlink:href="#SVGID_39_"  overflow="visible"/>
	</clipPath>
	<path display="inline" clip-path="url(#SVGID_40_)" fill="#FFFFFF" d="M214.3,195.263c-2.527,0-3.542,2.211-3.542,6.312
		s1.085,6.246,3.542,6.246c2.527,0,3.537-2.164,3.537-6.27C217.837,197.45,216.823,195.263,214.3,195.263z M214.3,209.58
		c-3.812,0-5.772-3.179-5.772-8.001c0-4.734,1.96-8.071,5.772-8.071s5.772,3.226,5.772,8.048
		C220.072,206.289,218.107,209.58,214.3,209.58z"/>
</g>
<g display="none">
	<defs>
		<rect id="SVGID_41_" width="512" height="512"/>
	</defs>
	<clipPath id="SVGID_42_" display="inline">
		<use xlink:href="#SVGID_41_"  overflow="visible"/>
	</clipPath>
	<path display="inline" clip-path="url(#SVGID_42_)" fill="#FFFFFF" d="M226.714,195.491h-1.713v12.13h1.736
		c2.211,0,4.552-1.126,4.552-6.153C231.289,196.189,228.831,195.491,226.714,195.491z M226.486,209.31h-3.631v-15.532h3.384
		c3.677,0,7.326,1.238,7.326,7.689C233.565,207.956,229.781,209.31,226.486,209.31z"/>
</g>
<g display="none">
	<defs>
		<rect id="SVGID_43_" width="512" height="512"/>
	</defs>
	<clipPath id="SVGID_44_" display="inline">
		<use xlink:href="#SVGID_43_"  overflow="visible"/>
	</clipPath>
	<polygon display="inline" clip-path="url(#SVGID_44_)" fill="#FFFFFF" points="242.418,203.334 242.418,209.31 240.254,209.31 
		240.254,203.357 235.022,193.773 237.391,193.773 241.361,201.37 241.431,201.37 245.42,193.773 247.65,193.773 	"/>
</g>
<g display="none">
	<defs>
		<rect id="SVGID_45_" width="512" height="512"/>
	</defs>
	<clipPath id="SVGID_46_" display="inline">
		<use xlink:href="#SVGID_45_"  overflow="visible"/>
	</clipPath>
	<polygon display="inline" clip-path="url(#SVGID_46_)" fill="#FFFFFF" points="259.705,201.239 259.705,203.245 251.113,208.612 
		250.028,207.099 257.918,202.254 250.028,197.427 251.02,195.873 	"/>
</g>
<g display="none">
	<defs>
		<rect id="SVGID_47_" width="512" height="512"/>
	</defs>
	<clipPath id="SVGID_48_" display="inline">
		<use xlink:href="#SVGID_47_"  overflow="visible"/>
	</clipPath>
	<path display="inline" clip-path="url(#SVGID_48_)" fill="#FFFFFF" d="M146.702,227.105c0.856,0,1.489,0.652,1.489,1.466
		c0,0.833-0.633,1.489-1.489,1.489c-0.833,0-1.466-0.656-1.466-1.489C145.236,227.756,145.869,227.105,146.702,227.105z
		 M149.704,228.571c0-4.534-1.103-6.381-2.998-6.381c-1.871,0-2.998,1.848-2.998,6.381c0,4.557,1.126,6.405,2.998,6.405
		C148.596,234.971,149.704,233.123,149.704,228.571z M141.563,228.571c0-5.139,1.759-8.024,5.139-8.024
		c3.384,0,5.139,2.886,5.139,8.024c0,5.162-1.759,8.048-5.139,8.048C143.323,236.618,141.563,233.733,141.563,228.571z"/>
</g>
<g display="none">
	<defs>
		<rect id="SVGID_49_" width="512" height="512"/>
	</defs>
	<clipPath id="SVGID_50_" display="inline">
		<use xlink:href="#SVGID_49_"  overflow="visible"/>
	</clipPath>
	<path display="inline" clip-path="url(#SVGID_50_)" fill="#FFFFFF" d="M159.614,236.618c-1.806,0-3.654-0.652-4.845-2.095
		l1.35-1.126c0.88,1.038,2.164,1.531,3.426,1.531c2.095,0,3.361-1.173,3.361-3.067c0-2.164-1.331-2.886-3.156-2.886h-1.196
		l0.247-1.601h0.815c1.489,0,2.886-0.833,2.886-2.639c0-1.648-1.261-2.551-2.863-2.551c-1.331,0-2.253,0.475-3.268,1.42
		l-1.126-1.238c1.331-1.261,2.863-1.829,4.51-1.829c2.974,0,4.827,1.783,4.827,3.901c0,1.894-1.396,3.295-2.951,3.589v0.088
		c1.713,0.112,3.449,1.396,3.449,3.766C165.069,234.566,162.881,236.618,159.614,236.618z"/>
</g>
<g display="none">
	<defs>
		<rect id="SVGID_51_" width="512" height="512"/>
	</defs>
	<clipPath id="SVGID_52_" display="inline">
		<use xlink:href="#SVGID_51_"  overflow="visible"/>
	</clipPath>
	<polygon display="inline" clip-path="url(#SVGID_52_)" fill="#FFFFFF" points="191.116,222.911 192.107,224.465 184.218,229.292 
		192.107,234.138 191.023,235.65 182.43,230.284 182.43,228.278 	"/>
</g>
<g display="none">
	<defs>
		<rect id="SVGID_53_" width="512" height="512"/>
	</defs>
	<clipPath id="SVGID_54_" display="inline">
		<use xlink:href="#SVGID_53_"  overflow="visible"/>
	</clipPath>
	<polygon display="inline" clip-path="url(#SVGID_54_)" fill="#FFFFFF" points="203.599,236.349 203.599,229.069 197.962,229.069 
		197.962,236.349 195.821,236.349 195.821,220.812 197.962,220.812 197.962,227.305 203.599,227.305 203.599,220.812 
		205.74,220.812 205.74,236.344 203.599,236.344 	"/>
</g>
<g display="none">
	<defs>
		<rect id="SVGID_55_" width="512" height="512"/>
	</defs>
	<clipPath id="SVGID_56_" display="inline">
		<use xlink:href="#SVGID_55_"  overflow="visible"/>
	</clipPath>
	<polygon display="inline" clip-path="url(#SVGID_56_)" fill="#FFFFFF" points="212.201,222.524 212.201,227.598 217.926,227.598 
		217.926,229.311 212.201,229.311 212.201,234.654 219.215,234.654 219.215,236.344 210.06,236.344 210.06,220.812 219.034,220.812 
		218.787,222.524 	"/>
</g>
<g display="none">
	<defs>
		<rect id="SVGID_57_" width="512" height="512"/>
	</defs>
	<clipPath id="SVGID_58_" display="inline">
		<use xlink:href="#SVGID_57_"  overflow="visible"/>
	</clipPath>
	<path display="inline" clip-path="url(#SVGID_58_)" fill="#FFFFFF" d="M225.294,230.712h4.938l-2.411-7.959h-0.088L225.294,230.712
		z M230.749,232.448h-5.976l-1.196,3.901h-2.141l5.027-15.532h2.704l5.027,15.532h-2.253L230.749,232.448z"/>
</g>
<g display="none">
	<defs>
		<rect id="SVGID_59_" width="512" height="512"/>
	</defs>
	<clipPath id="SVGID_60_" display="inline">
		<use xlink:href="#SVGID_59_"  overflow="visible"/>
	</clipPath>
	<path display="inline" clip-path="url(#SVGID_60_)" fill="#FFFFFF" d="M240.23,222.524h-1.713v12.13h1.736
		c2.211,0,4.552-1.126,4.552-6.153C244.81,223.227,242.353,222.524,240.23,222.524z M240.007,236.349h-3.631v-15.537h3.384
		c3.677,0,7.326,1.238,7.326,7.689C247.087,234.994,243.298,236.349,240.007,236.349z"/>
</g>
<g display="none">
	<defs>
		<rect id="SVGID_61_" width="512" height="512"/>
	</defs>
	<clipPath id="SVGID_62_" display="inline">
		<use xlink:href="#SVGID_61_"  overflow="visible"/>
	</clipPath>
	<polygon display="inline" clip-path="url(#SVGID_62_)" fill="#FFFFFF" points="252.76,222.524 252.76,227.598 258.486,227.598 
		258.486,229.311 252.76,229.311 252.76,234.654 259.775,234.654 259.775,236.344 250.619,236.344 250.619,220.812 259.593,220.812 
		259.347,222.524 	"/>
</g>
<g display="none">
	<defs>
		<rect id="SVGID_63_" width="512" height="512"/>
	</defs>
	<clipPath id="SVGID_64_" display="inline">
		<use xlink:href="#SVGID_63_"  overflow="visible"/>
	</clipPath>
	<path display="inline" clip-path="url(#SVGID_64_)" fill="#FFFFFF" d="M268.079,222.483h-2.141v5.637h2.164
		c2.164,0,3.402-0.81,3.402-2.909C271.509,223.269,270.401,222.483,268.079,222.483z M270.066,229.497l4.552,6.852h-2.546
		l-4.147-6.582h-1.983v6.582h-2.141v-15.537h4.082c3.877,0,5.907,1.485,5.907,4.394
		C273.785,227.533,272.161,228.952,270.066,229.497z"/>
</g>
<g display="none">
	<defs>
		<rect id="SVGID_65_" width="512" height="512"/>
	</defs>
	<clipPath id="SVGID_66_" display="inline">
		<use xlink:href="#SVGID_65_"  overflow="visible"/>
	</clipPath>
	<polygon display="inline" clip-path="url(#SVGID_66_)" fill="#FFFFFF" points="286.743,228.278 286.743,230.284 278.151,235.65 
		277.066,234.138 284.956,229.292 277.066,224.465 278.058,222.911 	"/>
</g>
<g display="none">
	<defs>
		<rect id="SVGID_67_" width="512" height="512"/>
	</defs>
	<clipPath id="SVGID_68_" display="inline">
		<use xlink:href="#SVGID_67_"  overflow="visible"/>
	</clipPath>
	<path display="inline" clip-path="url(#SVGID_68_)" fill="#FFFFFF" d="M146.702,254.143c0.856,0,1.489,0.652,1.489,1.466
		c0,0.833-0.633,1.489-1.489,1.489c-0.833,0-1.466-0.656-1.466-1.489C145.236,254.799,145.869,254.143,146.702,254.143z
		 M149.704,255.609c0-4.534-1.103-6.381-2.998-6.381c-1.871,0-2.998,1.848-2.998,6.381c0,4.557,1.126,6.405,2.998,6.405
		C148.596,262.014,149.704,260.161,149.704,255.609z M141.563,255.609c0-5.139,1.759-8.024,5.139-8.024
		c3.384,0,5.139,2.886,5.139,8.024c0,5.162-1.759,8.048-5.139,8.048C143.323,263.657,141.563,260.771,141.563,255.609z"/>
</g>
<g display="none">
	<defs>
		<rect id="SVGID_69_" width="512" height="512"/>
	</defs>
	<clipPath id="SVGID_70_" display="inline">
		<use xlink:href="#SVGID_69_"  overflow="visible"/>
	</clipPath>
	<polygon display="inline" clip-path="url(#SVGID_70_)" fill="#FFFFFF" points="163.379,259.668 163.379,263.387 161.373,263.387 
		161.373,259.668 155.015,259.668 155.015,258.202 159.567,247.58 161.303,248.301 157.198,258.02 161.368,258.02 161.573,253.961 
		163.375,253.961 163.375,258.02 165.334,258.02 165.334,259.668 	"/>
</g>
<g display="none">
	<defs>
		<rect id="SVGID_71_" width="512" height="512"/>
	</defs>
	<clipPath id="SVGID_72_" display="inline">
		<use xlink:href="#SVGID_71_"  overflow="visible"/>
	</clipPath>
	<polygon display="inline" clip-path="url(#SVGID_72_)" fill="#FFFFFF" points="191.116,249.949 192.107,251.504 184.218,256.33 
		192.107,261.176 191.023,262.689 182.43,257.322 182.43,255.316 	"/>
</g>
<g display="none">
	<defs>
		<rect id="SVGID_73_" width="512" height="512"/>
	</defs>
	<clipPath id="SVGID_74_" display="inline">
		<use xlink:href="#SVGID_73_"  overflow="visible"/>
	</clipPath>
	<polygon display="inline" clip-path="url(#SVGID_74_)" fill="#FFFFFF" points="196.813,265.733 195.142,264.988 204.767,245.127 
		206.415,245.918 	"/>
</g>
<g display="none">
	<defs>
		<rect id="SVGID_75_" width="512" height="512"/>
	</defs>
	<clipPath id="SVGID_76_" display="inline">
		<use xlink:href="#SVGID_75_"  overflow="visible"/>
	</clipPath>
	<polygon display="inline" clip-path="url(#SVGID_76_)" fill="#FFFFFF" points="217.116,263.387 217.116,256.107 211.479,256.107 
		211.479,263.387 209.338,263.387 209.338,247.855 211.479,247.855 211.479,254.348 217.116,254.348 217.116,247.855 
		219.257,247.855 219.257,263.387 	"/>
</g>
<g display="none">
	<defs>
		<rect id="SVGID_77_" width="512" height="512"/>
	</defs>
	<clipPath id="SVGID_78_" display="inline">
		<use xlink:href="#SVGID_77_"  overflow="visible"/>
	</clipPath>
	<polygon display="inline" clip-path="url(#SVGID_78_)" fill="#FFFFFF" points="225.722,249.567 225.722,254.641 231.447,254.641 
		231.447,256.354 225.722,256.354 225.722,261.697 232.737,261.697 232.737,263.387 223.581,263.387 223.581,247.855 
		232.555,247.855 232.308,249.567 	"/>
</g>
<g display="none">
	<defs>
		<rect id="SVGID_79_" width="512" height="512"/>
	</defs>
	<clipPath id="SVGID_80_" display="inline">
		<use xlink:href="#SVGID_79_"  overflow="visible"/>
	</clipPath>
	<path display="inline" clip-path="url(#SVGID_80_)" fill="#FFFFFF" d="M238.811,257.75h4.938l-2.411-7.959h-0.093L238.811,257.75z
		 M244.266,259.486h-5.976l-1.196,3.901h-2.141l5.027-15.532h2.704l5.027,15.532h-2.253L244.266,259.486z"/>
</g>
<g display="none">
	<defs>
		<rect id="SVGID_81_" width="512" height="512"/>
	</defs>
	<clipPath id="SVGID_82_" display="inline">
		<use xlink:href="#SVGID_81_"  overflow="visible"/>
	</clipPath>
	<path display="inline" clip-path="url(#SVGID_82_)" fill="#FFFFFF" d="M253.752,249.567h-1.713v12.13h1.736
		c2.211,0,4.552-1.126,4.552-6.153C258.327,250.266,255.87,249.567,253.752,249.567z M253.524,263.387h-3.631v-15.532h3.384
		c3.677,0,7.326,1.238,7.326,7.689C260.603,262.037,256.819,263.387,253.524,263.387z"/>
</g>
<g display="none">
	<defs>
		<rect id="SVGID_83_" width="512" height="512"/>
	</defs>
	<clipPath id="SVGID_84_" display="inline">
		<use xlink:href="#SVGID_83_"  overflow="visible"/>
	</clipPath>
	<polygon display="inline" clip-path="url(#SVGID_84_)" fill="#FFFFFF" points="266.277,249.567 266.277,254.641 272.002,254.641 
		272.002,256.354 266.277,256.354 266.277,261.697 273.292,261.697 273.292,263.387 264.136,263.387 264.136,247.855 
		273.11,247.855 272.863,249.567 	"/>
</g>
<g display="none">
	<defs>
		<rect id="SVGID_85_" width="512" height="512"/>
	</defs>
	<clipPath id="SVGID_86_" display="inline">
		<use xlink:href="#SVGID_85_"  overflow="visible"/>
	</clipPath>
	<path display="inline" clip-path="url(#SVGID_86_)" fill="#FFFFFF" d="M281.6,249.521h-2.141v5.637h2.164
		c2.164,0,3.402-0.81,3.402-2.909C285.026,250.312,283.923,249.521,281.6,249.521z M283.583,256.531l4.557,6.856h-2.546
		l-4.147-6.582h-1.987v6.582h-2.141v-15.532h4.082c3.877,0,5.907,1.485,5.907,4.394
		C287.306,254.571,285.682,255.991,283.583,256.531z"/>
</g>
<g display="none">
	<defs>
		<rect id="SVGID_87_" width="512" height="512"/>
	</defs>
	<clipPath id="SVGID_88_" display="inline">
		<use xlink:href="#SVGID_87_"  overflow="visible"/>
	</clipPath>
	<polygon display="inline" clip-path="url(#SVGID_88_)" fill="#FFFFFF" points="300.26,255.316 300.26,257.322 291.668,262.689 
		290.583,261.176 298.473,256.33 290.583,251.504 291.575,249.949 	"/>
</g>
<text transform="matrix(1 0 0 1 160 256)" fill="#FFFFFF" font-family="'OpenSans-BoldItalic'" font-size="100">&lt;tt&gt;</text>
</svg>
