<?xml version="1.0" encoding="utf-8"?>
<!-- Generator: Adobe Illustrator 17.0.2, SVG Export Plug-In . SVG Version: 6.00 Build 0)  -->
<!DOCTYPE svg PUBLIC "-//W3C//DTD SVG 1.1//EN" "http://www.w3.org/Graphics/SVG/1.1/DTD/svg11.dtd">
<svg version="1.1" id="Layer_1" xmlns:sketch="http://www.bohemiancoding.com/sketch/ns"
	 xmlns="http://www.w3.org/2000/svg" xmlns:xlink="http://www.w3.org/1999/xlink" x="0px" y="0px" width="43.222px"
	 height="48.625px" viewBox="4 0 43.222 48.625" enable-background="new 4 0 43.222 48.625" xml:space="preserve">
<title></title>
<path id="Oval-1" fill="#FFFFFF" d="M36.582,12.141l-2.732,4.923c-0.998,2.046-0.861,4.485,0.402,6.363l0.08,0.119
	c1.266,1.886,2.964,3.618,3.525,4.243c0.33,0.362,0.582,0.811,0.72,1.329c0.461,1.709-0.502,3.482-2.152,3.96
	c-1.65,0.478-3.361-0.52-3.823-2.229c-0.116-0.429-0.142-0.862-0.09-1.277c0.089-0.706-0.13-1.856-1.107-2.985
	c-0.977-1.129-2.975,1.003-3.621,3.196c-0.676,2.291-1.083,4.205-0.961,4.389c0.073,0.11,0.138,0.23,0.201,0.345
	c0.906,1.765,0.254,3.959-1.446,4.901c-1.705,0.939-3.822,0.268-4.729-1.498c-0.906-1.766-0.259-3.959,1.446-4.898
	c0.077-0.042,0.154-0.081,0.232-0.117c0.13-0.059,0.5-0.981,0.82-2.07c0.321-1.089,0.581-1.972,0.581-1.972
	c0.034-0.116,0.064-0.23,0.091-0.344l1.726-6.382L23.9,26.064c-0.219-0.745-0.58-0.772-1.372-0.185
	c-0.478,0.354-1.268,1.051-1.653,1.338c-0.725,0.537-1.331,1.58-1.651,2.219c-0.189,0.376-0.453,0.719-0.791,1.003
	c-1.321,1.111-3.262,0.901-4.334-0.467c-1.072-1.368-0.87-3.378,0.451-4.489c0.387-0.326,0.828-0.538,1.284-0.64
	c0.776-0.175,3.416-1.845,5.007-3.024c0.285-0.211,0.524-0.411,0.718-0.596l4.247-3.341l-3.699,2.07c0,0-0.376-0.039-0.838,0.011
	c-1.354,0.156-2.748,0.353-3.011,0.7c-0.156,0.205-0.341,0.391-0.556,0.551c-1.234,0.921-2.956,0.631-3.845-0.648
	c-0.889-1.279-0.609-3.062,0.625-3.983c0.509-0.38,1.101-0.554,1.683-0.537c0.99,0.033,3.599,0.57,5.769,0.175l0.56-0.103
	c2.18-0.4,4.789-2.365,5.829-4.389c0,0,1.018-1.852,2.274-4.137c1.256-2.285,1.163-4.788-0.207-5.59l-2.481-1.453
	c-1.252-0.733-3.301-0.734-4.553-0.003L6.277,10.521C5.025,11.253,4,13.07,4,14.559v19.499c0,1.491,1.027,3.311,2.276,4.038
	l17.088,9.978c1.253,0.735,3.303,0.735,4.553-0.003l17.029-9.972c1.252-0.733,2.276-2.551,2.276-4.041V14.559
	c0-1.489-1.024-3.308-2.276-4.041c0.002,0.004-1.26-0.742-2.816-1.65C40.575,7.958,38.091,9.423,36.582,12.141z"/>
</svg>
